<svg width="240" height="240" viewBox="0 0 240 240" fill="none" xmlns="http://www.w3.org/2000/svg" xmlns:xlink="http://www.w3.org/1999/xlink">
<path d="M228.532,120C234.866,120 240.056,114.853 239.452,108.548C237.26,85.677 228.536,63.828 214.204,45.666C197.496,24.491 174.14,9.563 147.907,3.29C121.673,-2.983 94.091,-0.234 69.612,11.092C45.132,22.418 25.181,41.661 12.98,65.717C0.778,89.772 -2.963,117.237 2.36,143.68C7.682,170.122 21.758,194.001 42.317,211.462C62.875,228.924 88.717,238.95 115.672,239.922C138.793,240.756 161.576,234.888 181.325,223.148C186.769,219.91 187.855,212.68 184.113,207.57L184.113,207.57C180.372,202.458 173.222,201.416 167.706,204.53C152.178,213.292 134.465,217.648 116.5,216.998C94.697,216.212 73.795,208.102 57.166,193.979C40.537,179.855 29.152,160.541 24.847,139.153C20.541,117.765 23.567,95.55 33.437,76.093C43.306,56.636 59.443,41.071 79.243,31.91C99.044,22.748 121.353,20.525 142.572,25.599C163.791,30.673 182.682,42.747 196.197,59.875C207.332,73.987 214.284,90.852 216.386,108.557C217.132,114.847 222.196,120 228.532,120L228.532,120Z" fill="#FF4240"/>
</svg>
